<svg xmlns="http://www.w3.org/2000/svg" viewBox="0 0 64 64" width="64" height="64">
  <rect width="64" height="64" rx="10" ry="10" fill="#0B0F14"/>

  <!-- Gray squares: slightly darker to increase contrast with gold -->
  <rect x="10" y="10" width="13" height="13" rx="1.5" ry="1.5" fill="#9CA3AF"/>
  <rect x="27" y="10" width="13" height="13" rx="1.5" ry="1.5" fill="#9CA3AF"/>
  <rect x="44" y="10" width="13" height="13" rx="1.5" ry="1.5" fill="url(#goldGrad)"/>

  <rect x="10" y="27" width="13" height="13" rx="1.5" ry="1.5" fill="#9CA3AF"/>
  <rect x="27" y="27" width="13" height="13" rx="1.5" ry="1.5" fill="#9CA3AF"/>
  <rect x="44" y="27" width="13" height="13" rx="1.5" ry="1.5" fill="#9CA3AF"/>

  <rect x="10" y="44" width="13" height="13" rx="1.5" ry="1.5" fill="#9CA3AF"/>
  <rect x="27" y="44" width="13" height="13" rx="1.5" ry="1.5" fill="#9CA3AF"/>
  <rect x="44" y="44" width="13" height="13" rx="1.5" ry="1.5" fill="#9CA3AF"/>

  <defs>
    <linearGradient id="goldGrad" x1="0%" y1="0%" x2="100%" y2="100%">
      <stop offset="0%" stop-color="#F5D97E"/>
      <stop offset="100%" stop-color="#B8923E"/>
    </linearGradient>
  </defs>
</svg>
